/vscmnt/brussel_pixiu_data/_data_brussel/112/vsc11236/PredSimResults/SUBJ10opt3D/weighted-LRposFixed/expIG/worker_04.mot
version=1
nRows=11
nColumns=50
inDegrees=yes
endheader
                time	         pelvis_tilt	         pelvis_list	     pelvis_rotation	           pelvis_tx	           pelvis_ty	           pelvis_tz	       hip_flexion_r	     hip_adduction_r	      hip_rotation_r	        knee_angle_r	       ankle_angle_r	         mtp_angle_r	       hip_flexion_l	     hip_adduction_l	      hip_rotation_l	        knee_angle_l	       ankle_angle_l	         mtp_angle_l	    lumbar_extension	      lumbar_bending	     lumbar_rotation	 ercspn_r/activation	 intobl_r/activation	 extobl_r/activation	    abd_r/activation	    add_r/activation	hamstrings_r/activation	bifemsh_r/activation	glut_max_r/activation	iliopsoas_r/activation	rect_fem_r/activation	  vasti_r/activation	gastroc_r/activation	 soleus_r/activation	tib_ant_r/activation	 ercspn_l/activation	 intobl_l/activation	 extobl_l/activation	    abd_l/activation	    add_l/activation	hamstrings_l/activation	bifemsh_l/activation	glut_max_l/activation	iliopsoas_l/activation	rect_fem_l/activation	  vasti_l/activation	gastroc_l/activation	 soleus_l/activation	tib_ant_l/activation	
          0.00000000	         -4.48873592	         -1.11758119	          6.50838277	          0.00000000	          0.82543449	         -0.01421541	         30.05150943	         -1.20968539	         -5.07747925	         -5.81416473	          2.81706143	          0.25459222	        -13.71959757	         -0.47675811	         -0.24253977	         -6.44529477	          9.82574591	         25.28840367	         -5.85454348	         -0.84135061	         -6.78359220	          0.11752393	          0.16361634	          0.01000002	          0.01000006	          0.15205730	          0.12136347	          0.16620831	          0.02621753	          0.11248000	          0.01000005	          0.01000002	          0.01000001	          0.01000000	          0.27326079	          0.05470256	          0.00999999	          0.01000000	          0.07611291	          0.01000003	          0.01130419	          0.24469686	          0.02395249	          0.49617514	          0.01000004	          0.01000000	          0.33556671	          0.27540967	          0.02533251	
          0.01225946	         -4.53767759	         -1.08076344	          6.64156458	          0.01525365	          0.82377040	         -0.01369590	         30.16047968	         -1.08104086	         -4.95310681	         -7.63486495	          2.51913317	          0.25209155	        -13.85059026	         -0.59651757	         -0.60379339	         -8.05342578	          9.36213152	         26.95247014	         -5.60373383	         -0.33857236	         -7.16702432	          0.10645493	          0.13585739	          0.01000003	          0.00999999	          0.21647692	          0.10264152	          0.13801126	          0.06363711	          0.09339677	          0.01000004	          0.01000000	          0.01450442	          0.01204327	          0.29424467	          0.09770220	          0.01000000	          0.01000000	          0.06319968	          0.01376803	          0.01553667	          0.20318191	          0.02456686	          0.44364822	          0.01000005	          0.01000000	          0.30865575	          0.26953404	          0.02103463	
          0.02451891	         -4.57433581	         -1.07016308	          6.74703481	          0.03092690	          0.82233251	         -0.01309470	         30.05487497	         -0.95604175	         -4.72944581	         -9.28808381	          2.14961156	          0.24249736	        -13.85198019	         -0.76106023	         -0.98608838	         -9.94589512	          8.73813211	         28.65421769	         -5.31759511	          0.19951508	         -7.52594933	          0.08839394	          0.11280799	          0.01000001	          0.01304249	          0.17974971	          0.08668776	          0.11459649	          0.10219923	          0.07755118	          0.01000001	          0.01000000	          0.01204362	          0.01000003	          0.36308216	          0.11311906	          0.00999999	          0.01000000	          0.05247730	          0.01651817	          0.01647260	          0.16871033	          0.02039888	          0.36837943	          0.01000002	          0.01000000	          0.27305552	          0.25747507	          0.01746592	
          0.03677837	         -4.60060950	         -1.07552817	          6.81716369	          0.04682530	          0.82123320	         -0.01234502	         29.78432261	         -0.81435413	         -4.58463309	        -10.66665429	          1.68600983	          0.23185807	        -13.67864029	         -0.96275896	         -1.39193994	        -12.16513937	          7.91274659	         30.34630053	         -5.01846027	          0.74672548	         -7.85343579	          0.10339647	          0.09366912	          0.01000001	          0.05501833	          0.17932950	          0.07506518	          0.09515420	          0.11344418	          0.06439394	          0.01000001	          0.01000000	          0.01000032	          0.01000000	          0.41216627	          0.12619523	          0.00999999	          0.01000000	          0.04357406	          0.01371576	          0.01368076	          0.14008715	          0.01693804	          0.30588061	          0.01000003	          0.01000000	          0.22672924	          0.24013456	          0.01450267	
          0.04903783	         -4.61732781	         -1.08181712	          6.85286345	          0.06274754	          0.82056153	         -0.01146697	         29.44861444	         -0.67020043	         -4.53921817	        -11.95627770	          1.26752797	          0.22041281	        -13.29274289	         -1.18588608	         -1.82403157	        -14.74194833	          6.86817222	         31.92173530	         -4.72695765	          1.28739553	         -8.14293339	          0.10536195	          0.07777733	          0.01000001	          0.09369551	          0.20726248	          0.06729736	          0.07901046	          0.11591785	          0.05346894	          0.01000002	          0.01770870	          0.01000001	          0.01000001	          0.43810749	          0.15220909	          0.00999999	          0.01000000	          0.03618133	          0.02647711	          0.02174157	          0.11632016	          0.01406436	          0.25398527	          0.01000002	          0.01000000	          0.18826262	          0.21865198	          0.01204217	
          0.06129728	         -4.62572147	         -1.08987055	          6.85706587	          0.07852652	          0.82039859	         -0.01048512	         29.10071744	         -0.52451176	         -4.57035544	        -13.24086860	          1.00147869	          0.20741682	        -12.66381271	         -1.43259677	         -2.28787075	        -17.69338217	          5.61755851	         33.19577715	         -4.45557285	          1.82221383	         -8.39213386	          0.10001156	          0.06458172	          0.01000001	          0.11997048	          0.22048160	          0.06603323	          0.06560566	          0.10873041	          0.04439746	          0.01000001	          0.06397153	          0.01000000	          0.01000000	          0.45382904	          0.17250825	          0.01000000	          0.01000000	          0.03004285	          0.10608188	          0.03041791	          0.09658547	          0.01167822	          0.21089442	          0.01000001	          0.00999999	          0.15632220	          0.18629381	          0.01000000	
          0.07355674	         -4.62844237	         -1.09591729	          6.82979677	          0.09402688	          0.82084086	         -0.00943071	         28.71625115	         -0.37598384	         -4.64357396	        -14.46490773	          0.97395339	          0.19355170	        -11.76768602	         -1.70005796	         -2.80224850	        -21.02380087	          4.19894478	         33.89672596	         -4.21412455	          2.34709392	         -8.59917251	          0.09410661	          0.05362486	          0.01000001	          0.13586353	          0.22985391	          0.06660310	          0.05447509	          0.09632569	          0.03686504	          0.01000001	          0.10117556	          0.01000000	          0.01000000	          0.43619146	          0.18267715	          0.01000000	          0.01000000	          0.02494582	          0.17801751	          0.04410846	          0.08019898	          0.01000000	          0.17511432	          0.01000001	          0.00999999	          0.12980075	          0.15468742	          0.01000000	
          0.08581620	         -4.62791965	         -1.09222444	          6.77149115	          0.10916572	          0.82192372	         -0.00833706	         28.25127189	         -0.22483344	         -4.71711403	        -15.55242457	          1.26636671	          0.19701293	        -10.59557770	         -1.98702839	         -3.37742809	        -24.72325313	          2.65853915	         33.77527763	         -4.00866135	          2.85476913	         -8.76293282	          0.08615921	          0.04452693	          0.01000001	          0.14588582	          0.22462376	          0.06930491	          0.04523293	          0.08031441	          0.03061056	          0.01000001	          0.13929580	          0.01000001	          0.01000000	          0.38264832	          0.18893824	          0.01000000	          0.01000000	          0.02071354	          0.24001549	          0.04715055	          0.06659273	          0.01000000	          0.14540463	          0.01000000	          0.00999999	          0.10777891	          0.12844333	          0.01000000	
          0.09807565	         -4.62654310	         -1.06723382	          6.68063938	          0.12389932	          0.82364526	         -0.00723638	         27.64891119	         -0.07351794	         -4.74896743	        -16.38802641	          1.84641504	          0.25644533	         -9.16582062	         -2.28729356	         -3.99524291	        -28.69787552	          0.86930936	         32.88699214	         -3.84261605	          3.33429652	         -8.88136789	          0.07456539	          0.03697254	          0.01000001	          0.14562249	          0.20176730	          0.07238979	          0.03755878	          0.06668842	          0.02541721	          0.01000000	          0.16375232	          0.01000001	          0.01000000	          0.32115291	          0.18843941	          0.01000000	          0.01000001	          0.01719930	          0.28986746	          0.05719080	          0.05710284	          0.01000000	          0.12073545	          0.01000000	          0.00999999	          0.08949326	          0.10665178	          0.01000000	
          0.11033511	         -4.62615739	         -1.00499215	          6.55387106	          0.13819788	          0.82594751	         -0.00615433	         26.87430138	          0.06594075	         -4.71885208	        -16.87704290	          2.53340446	          0.37458690	         -7.51804166	         -2.58415661	         -4.62058211	        -32.80747596	         -1.28146269	         31.32886066	         -3.72110152	          3.76993614	         -8.95183085	          0.06356145	          0.03069982	          0.01000001	          0.13801615	          0.16753576	          0.07608788	          0.03118662	          0.05537416	          0.02110495	          0.01000000	          0.16705733	          0.01000000	          0.01000000	          0.27295896	          0.18187021	          0.01000000	          0.01000001	          0.01428129	          0.30638921	          0.05452455	          0.05638049	          0.01000000	          0.10025162	          0.01000001	          0.00999999	          0.07430994	          0.08855736	          0.00999999	
          0.12259456	         -4.62706820	         -0.89188670	          6.38830618	          0.15205274	          0.82870069	         -0.00510475	         25.94155939	          0.17588579	         -4.62523923	        -17.02664179	          3.20355381	          0.52947312	         -5.70572155	         -2.85723738	         -5.20812728	        -36.90132210	         -3.84690588	         29.20734115	         -3.64884871	          4.14737091	         -8.97267337	          0.05277772	          0.02549133	          0.01000002	          0.12957475	          0.13911185	          0.08199180	          0.02589554	          0.04597946	          0.01752431	          0.01000000	          0.15332643	          0.01000000	          0.01000000	          0.23595687	          0.18693742	          0.01000004	          0.01000001	          0.01185834	          0.27618656	          0.09046567	          0.06782204	          0.01417883	          0.08324305	          0.01000000	          0.00999999	          0.06170260	          0.07353282	          0.01000003	
